<svg id="visual" viewBox="0 0 1920 1080" width="1920" height="1080" xmlns="http://www.w3.org/2000/svg" xmlns:xlink="http://www.w3.org/1999/xlink" version="1.1"><rect x="0" y="0" width="1920" height="1080" fill="#000000"></rect><defs><linearGradient id="grad1_0" x1="43.8%" y1="0%" x2="100%" y2="100%"><stop offset="14.444444444444446%" stop-color="#924dff" stop-opacity="1"></stop><stop offset="85.55555555555554%" stop-color="#924dff" stop-opacity="1"></stop></linearGradient></defs><defs><linearGradient id="grad1_1" x1="43.8%" y1="0%" x2="100%" y2="100%"><stop offset="14.444444444444446%" stop-color="#924dff" stop-opacity="1"></stop><stop offset="85.55555555555554%" stop-color="#7c3aea" stop-opacity="1"></stop></linearGradient></defs><defs><linearGradient id="grad1_2" x1="43.8%" y1="0%" x2="100%" y2="100%"><stop offset="14.444444444444446%" stop-color="#6625d5" stop-opacity="1"></stop><stop offset="85.55555555555554%" stop-color="#7c3aea" stop-opacity="1"></stop></linearGradient></defs><defs><linearGradient id="grad1_3" x1="43.8%" y1="0%" x2="100%" y2="100%"><stop offset="14.444444444444446%" stop-color="#6625d5" stop-opacity="1"></stop><stop offset="85.55555555555554%" stop-color="#4f0bc1" stop-opacity="1"></stop></linearGradient></defs><defs><linearGradient id="grad1_4" x1="43.8%" y1="0%" x2="100%" y2="100%"><stop offset="14.444444444444446%" stop-color="#3500ac" stop-opacity="1"></stop><stop offset="85.55555555555554%" stop-color="#4f0bc1" stop-opacity="1"></stop></linearGradient></defs><defs><linearGradient id="grad1_5" x1="43.8%" y1="0%" x2="100%" y2="100%"><stop offset="14.444444444444446%" stop-color="#3500ac" stop-opacity="1"></stop><stop offset="85.55555555555554%" stop-color="#110099" stop-opacity="1"></stop></linearGradient></defs><defs><linearGradient id="grad1_6" x1="43.8%" y1="0%" x2="100%" y2="100%"><stop offset="14.444444444444446%" stop-color="#000085" stop-opacity="1"></stop><stop offset="85.55555555555554%" stop-color="#110099" stop-opacity="1"></stop></linearGradient></defs><defs><linearGradient id="grad1_7" x1="43.8%" y1="0%" x2="100%" y2="100%"><stop offset="14.444444444444446%" stop-color="#000085" stop-opacity="1"></stop><stop offset="85.55555555555554%" stop-color="#000000" stop-opacity="1"></stop></linearGradient></defs><defs><linearGradient id="grad2_0" x1="0%" y1="0%" x2="56.3%" y2="100%"><stop offset="14.444444444444446%" stop-color="#924dff" stop-opacity="1"></stop><stop offset="85.55555555555554%" stop-color="#924dff" stop-opacity="1"></stop></linearGradient></defs><defs><linearGradient id="grad2_1" x1="0%" y1="0%" x2="56.3%" y2="100%"><stop offset="14.444444444444446%" stop-color="#7c3aea" stop-opacity="1"></stop><stop offset="85.55555555555554%" stop-color="#924dff" stop-opacity="1"></stop></linearGradient></defs><defs><linearGradient id="grad2_2" x1="0%" y1="0%" x2="56.3%" y2="100%"><stop offset="14.444444444444446%" stop-color="#7c3aea" stop-opacity="1"></stop><stop offset="85.55555555555554%" stop-color="#6625d5" stop-opacity="1"></stop></linearGradient></defs><defs><linearGradient id="grad2_3" x1="0%" y1="0%" x2="56.3%" y2="100%"><stop offset="14.444444444444446%" stop-color="#4f0bc1" stop-opacity="1"></stop><stop offset="85.55555555555554%" stop-color="#6625d5" stop-opacity="1"></stop></linearGradient></defs><defs><linearGradient id="grad2_4" x1="0%" y1="0%" x2="56.3%" y2="100%"><stop offset="14.444444444444446%" stop-color="#4f0bc1" stop-opacity="1"></stop><stop offset="85.55555555555554%" stop-color="#3500ac" stop-opacity="1"></stop></linearGradient></defs><defs><linearGradient id="grad2_5" x1="0%" y1="0%" x2="56.3%" y2="100%"><stop offset="14.444444444444446%" stop-color="#110099" stop-opacity="1"></stop><stop offset="85.55555555555554%" stop-color="#3500ac" stop-opacity="1"></stop></linearGradient></defs><defs><linearGradient id="grad2_6" x1="0%" y1="0%" x2="56.3%" y2="100%"><stop offset="14.444444444444446%" stop-color="#110099" stop-opacity="1"></stop><stop offset="85.55555555555554%" stop-color="#000085" stop-opacity="1"></stop></linearGradient></defs><defs><linearGradient id="grad2_7" x1="0%" y1="0%" x2="56.3%" y2="100%"><stop offset="14.444444444444446%" stop-color="#000000" stop-opacity="1"></stop><stop offset="85.55555555555554%" stop-color="#000085" stop-opacity="1"></stop></linearGradient></defs><g transform="translate(1920, 0)"><path d="M0 486C-40.1 425.1 -80.2 364.1 -145 350.2C-209.9 336.2 -299.5 369.2 -343.7 343.7C-387.8 318.1 -386.7 233.9 -402.8 166.8C-419 99.8 -452.5 49.9 -486 0L0 0Z" fill="#00007c"></path><path d="M0 425.3C-35.1 371.9 -70.2 318.6 -126.9 306.4C-183.6 294.2 -262 323.1 -300.7 300.7C-339.4 278.3 -338.3 204.7 -352.5 146C-366.6 87.3 -395.9 43.7 -425.2 0L0 0Z" fill="#00008f"></path><path d="M0 364.5C-30.1 318.8 -60.1 273.1 -108.8 262.6C-157.4 252.1 -224.6 276.9 -257.7 257.7C-290.9 238.6 -290 175.4 -302.1 125.1C-314.2 74.9 -339.4 37.4 -364.5 0L0 0Z" fill="#2600a3"></path><path d="M0 303.8C-25.1 265.7 -50.1 227.6 -90.6 218.8C-131.2 210.1 -187.2 230.8 -214.8 214.8C-242.4 198.8 -241.7 146.2 -251.8 104.3C-261.9 62.4 -282.8 31.2 -303.7 0L0 0Z" fill="#4200b6"></path><path d="M0 243C-20 212.5 -40.1 182.1 -72.5 175.1C-104.9 168.1 -149.7 184.6 -171.8 171.8C-193.9 159 -193.3 116.9 -201.4 83.4C-209.5 49.9 -226.2 25 -243 0L0 0Z" fill="#5a1acb"></path><path d="M0 182.3C-15 159.4 -30.1 136.5 -54.4 131.3C-78.7 126.1 -112.3 138.5 -128.9 128.9C-145.4 119.3 -145 87.7 -151.1 62.6C-157.1 37.4 -169.7 18.7 -182.2 0L0 0Z" fill="#7130df"></path><path d="M0 121.5C-10 106.3 -20 91 -36.3 87.5C-52.5 84 -74.9 92.3 -85.9 85.9C-97 79.5 -96.7 58.5 -100.7 41.7C-104.7 25 -113.1 12.5 -121.5 0L0 0Z" fill="#8743f4"></path><path d="M0 60.8C-5 53.1 -10 45.5 -18.1 43.8C-26.2 42 -37.4 46.2 -43 43C-48.5 39.8 -48.3 29.2 -50.4 20.9C-52.4 12.5 -56.6 6.2 -60.7 0L0 0Z" fill="#924dff"></path></g><g transform="translate(0, 1080)"><path d="M0 -486C55.3 -459.6 110.5 -433.3 171.4 -413.9C232.4 -394.5 298.9 -382.2 343.7 -343.7C388.4 -305.1 411.4 -240.4 431.5 -178.7C451.5 -117.1 468.8 -58.5 486 0L0 0Z" fill="#00007c"></path><path d="M0 -425.2C48.4 -402.2 96.7 -379.1 150 -362.2C203.3 -345.2 261.5 -334.4 300.7 -300.7C339.9 -267 359.9 -210.3 377.5 -156.4C395.1 -102.4 410.2 -51.2 425.3 0L0 0Z" fill="#00008f"></path><path d="M0 -364.5C41.5 -344.7 82.9 -324.9 128.6 -310.4C174.3 -295.9 224.2 -286.7 257.7 -257.7C291.3 -228.8 308.5 -180.3 323.6 -134C338.7 -87.8 351.6 -43.9 364.5 0L0 0Z" fill="#2600a3"></path><path d="M0 -303.7C34.5 -287.3 69.1 -270.8 107.2 -258.7C145.2 -246.6 186.8 -238.9 214.8 -214.8C242.8 -190.7 257.1 -150.2 269.7 -111.7C282.2 -73.2 293 -36.6 303.8 0L0 0Z" fill="#4200b6"></path><path d="M0 -243C27.6 -229.8 55.3 -216.6 85.7 -206.9C116.2 -197.3 149.5 -191.1 171.8 -171.8C194.2 -152.6 205.7 -120.2 215.7 -89.4C225.8 -58.5 234.4 -29.3 243 0L0 0Z" fill="#5a1acb"></path><path d="M0 -182.2C20.7 -172.4 41.5 -162.5 64.3 -155.2C87.1 -148 112.1 -143.3 128.9 -128.9C145.7 -114.4 154.3 -90.1 161.8 -67C169.3 -43.9 175.8 -22 182.3 0L0 0Z" fill="#7130df"></path><path d="M0 -121.5C13.8 -114.9 27.6 -108.3 42.9 -103.5C58.1 -98.6 74.7 -95.6 85.9 -85.9C97.1 -76.3 102.8 -60.1 107.9 -44.7C112.9 -29.3 117.2 -14.6 121.5 0L0 0Z" fill="#8743f4"></path><path d="M0 -60.7C6.9 -57.5 13.8 -54.2 21.4 -51.7C29 -49.3 37.4 -47.8 43 -43C48.6 -38.1 51.4 -30 53.9 -22.3C56.4 -14.6 58.6 -7.3 60.8 0L0 0Z" fill="#924dff"></path></g></svg>