<?xml version="1.0" encoding="UTF-8"?>
<!DOCTYPE svg PUBLIC "-//W3C//DTD SVG 1.1//EN" "http://www.w3.org/Graphics/SVG/1.1/DTD/svg11.dtd">
<!-- Creator: CorelDRAW 2021 (64-Bit) -->
<svg xmlns="http://www.w3.org/2000/svg" xml:space="preserve" width="508mm" height="285.75mm" version="1.1" style="shape-rendering:geometricPrecision; text-rendering:geometricPrecision; image-rendering:optimizeQuality; fill-rule:evenodd; clip-rule:evenodd"
viewBox="0 0 6641.04 3735.58"
 xmlns:xlink="http://www.w3.org/1999/xlink"
 xmlns:xodm="http://www.corel.com/coreldraw/odm/2003">
 <defs>
  <style type="text/css">
   <![CDATA[
    .fil0 {fill:#9958FF;fill-rule:nonzero}
    .fil1 {fill:#FFD62B;fill-rule:nonzero}
   ]]>
  </style>
 </defs>
 <g id="Layer_x0020_1">
  <metadata id="CorelCorpID_0Corel-Layer"/>
  <path class="fil0" d="M6641.04 1681.01c-209.61,-72.98 -419.56,-145.62 -594.23,-246.27 -175.02,-100.31 -314.76,-228.29 -484.24,-356.26 -169.83,-127.63 -369.06,-255.27 -474.56,-435.13 -105.5,-179.86 -116.56,-411.61 -127.98,-643.35l1681.01 0 0 1681.01z"/>
  <path class="fil1" d="M6641.04 1344.81c-167.76,-58.46 -335.51,-116.56 -475.59,-196.81 -139.74,-80.59 -251.46,-182.97 -387.39,-285.01 -135.59,-102.38 -295.04,-204.42 -379.44,-348.31 -84.4,-143.89 -93.39,-329.28 -102.38,-514.68l1344.81 0 0 1344.81z"/>
  <path class="fil0" d="M6641.04 1008.61c-125.9,-43.58 -251.81,-87.51 -356.61,-147.69 -104.8,-60.19 -188.86,-136.97 -290.55,-213.76 -101.69,-76.79 -221.37,-153.23 -284.67,-261.14 -63.3,-107.92 -69.87,-246.96 -76.79,-386.01l1008.61 0 0 1008.61z"/>
  <path class="fil1" d="M6641.04 672.4c-84.05,-29.05 -167.76,-58.46 -237.62,-98.58 -69.87,-40.12 -125.9,-91.31 -193.7,-142.51 -68.14,-51.19 -147.69,-102.04 -189.89,-173.98 -42.2,-71.94 -46.69,-164.64 -51.19,-257.34l672.4 0 0 672.4z"/>
  <path class="fil0" d="M6641.04 336.2c-41.85,-14.53 -84.05,-29.05 -118.99,-49.12 -34.93,-20.06 -62.95,-45.66 -96.85,-71.25 -33.9,-25.6 -73.67,-51.19 -94.77,-87.16 -21.1,-35.97 -23.17,-82.32 -25.6,-128.67l336.2 0 0 336.2z"/>
  <path class="fil0" d="M-0 2054.57c245.23,-5.19 490.47,-10.72 643.35,127.98 152.88,138.7 213.76,420.94 303.34,606.34 89.24,185.74 207.53,274.29 334.82,415.76 127.29,141.81 263.22,336.2 399.5,530.94l-1681.01 0 0 -1681.01z"/>
  <path class="fil1" d="M-0 2390.77c196.12,-4.15 392.24,-8.65 514.68,102.38 122.44,110.68 170.87,336.89 242.47,485.28 71.6,148.39 166.37,219.29 268.06,332.4 101.69,113.45 210.65,269.1 319.6,424.75l-1344.81 0 0 -1344.81z"/>
  <path class="fil0" d="M-0 2726.98c147,-3.11 294.35,-6.23 386.01,76.79 91.66,83.01 128.32,252.5 181.94,363.87 53.61,111.38 124.52,164.64 200.96,249.39 76.44,85.09 158.07,201.65 239.7,318.56l-1008.61 0 0 -1008.61z"/>
  <path class="fil1" d="M-0 3063.18c98.23,-2.07 196.12,-4.15 257.34,51.19 61.22,55.34 85.43,168.45 121.41,242.47 35.63,74.37 83.01,109.65 133.86,166.37 50.85,56.73 105.5,134.55 159.8,212.37l-672.4 0 0 -672.4z"/>
  <path class="fil0" d="M-0 3399.38c49.12,-1.04 98.23,-2.07 128.67,25.6 30.44,27.67 42.89,84.05 60.53,121.41 17.99,37.01 41.51,54.65 67.1,83.01 25.6,28.36 52.58,67.1 79.9,106.19l-336.2 0 0 -336.2z"/>
 </g>
</svg>
