<?xml version="1.0" encoding="UTF-8"?>
<!DOCTYPE svg PUBLIC "-//W3C//DTD SVG 1.1//EN" "http://www.w3.org/Graphics/SVG/1.1/DTD/svg11.dtd">
<!-- Creator: CorelDRAW 2021 (64-Bit) -->
<svg xmlns="http://www.w3.org/2000/svg" xml:space="preserve" width="162.544mm" height="17.678mm" version="1.1" style="shape-rendering:geometricPrecision; text-rendering:geometricPrecision; image-rendering:optimizeQuality; fill-rule:evenodd; clip-rule:evenodd"
viewBox="0 0 1802.27 196.01"
 xmlns:xlink="http://www.w3.org/1999/xlink"
 xmlns:xodm="http://www.corel.com/coreldraw/odm/2003">
 <defs>
  <style type="text/css">
   <![CDATA[
    .fil3 {fill:#6A31C2;fill-rule:nonzero}
    .fil2 {fill:#8443EA;fill-rule:nonzero}
    .fil1 {fill:#9F61FF;fill-rule:nonzero}
    .fil0 {fill:#B787FF;fill-rule:nonzero}
   ]]>
  </style>
 </defs>
 <g id="Layer_x0020_1">
  <metadata id="CorelCorpID_0Corel-Layer"/>
  <g id="_2309919897312">
   <path class="fil0" d="M-0 9.4l13.02 9.04c13.02,8.85 39.05,26.93 65.08,35.59 26.03,8.66 52.07,7.89 78.1,-0.96 26.03,-9.04 52.07,-26.36 78.5,-37.9 26.23,-11.54 53.07,-17.31 79.3,-13.85 26.43,3.66 52.46,16.35 78.5,19.62 26.03,3.27 52.07,-3.27 78.1,-2.89 26.03,0.38 52.06,7.31 78.1,9.23 26.03,1.92 52.07,-1.15 78.1,-4.81 26.03,-3.46 52.07,-7.31 78.1,-8.85 26.03,-1.73 52.07,-0.96 78.1,4.81 26.03,5.77 52.07,16.55 78.5,14.43 26.23,-2.31 53.07,-17.7 79.3,-18.66 26.43,-0.96 52.47,12.5 78.5,12.5 26.03,0 52.07,-13.47 78.1,-20.78 26.03,-7.5 52.07,-8.66 78.1,0.96 26.03,9.62 52.07,30.01 78.1,33.28 26.03,3.27 52.06,-10.97 78.1,-18.85 26.03,-8.08 52.07,-10 78.1,-9.43 26.03,0.77 52.06,3.85 78.5,2.69 26.23,-1.35 53.07,-7.12 79.3,-3.66 26.43,3.66 52.47,16.35 78.5,19.62 26.03,3.27 52.07,-3.27 78.1,-5.39 26.03,-2.31 52.07,-0.38 65.08,0.58l13.02 0.96 0 169.29 -13.02 0c-13.02,0 -39.05,0 -65.08,0 -26.03,0 -52.07,0 -78.1,0 -26.03,0 -52.07,0 -78.5,0 -26.23,0 -53.07,0 -79.3,0 -26.43,0 -52.47,0 -78.5,0 -26.03,0 -52.07,0 -78.1,0 -26.03,0 -52.07,0 -78.1,0 -26.03,0 -52.07,0 -78.1,0 -26.03,0 -52.07,0 -78.1,0 -26.03,0 -52.07,0 -78.1,0 -26.03,0 -52.07,0 -78.5,0 -26.23,0 -53.07,0 -79.3,0 -26.43,0 -52.46,0 -78.5,0 -26.03,0 -52.07,0 -78.1,0 -26.03,0 -52.06,0 -78.1,0 -26.03,0 -52.07,0 -78.1,0 -26.03,0 -52.06,0 -78.1,0 -26.03,0 -52.07,0 -78.1,0 -26.03,0 -52.07,0 -78.5,0 -26.23,0 -53.07,0 -79.3,0 -26.43,0 -52.47,0 -78.5,0 -26.03,0 -52.07,0 -78.1,0 -26.03,0 -52.07,0 -65.08,0l-13.02 0 0 -186.61z"/>
   <path class="fil1" d="M-0 86.36l13.02 -5.19c13.02,-5 39.05,-15.39 65.08,-18.28 26.03,-2.89 52.07,1.73 78.1,2.31 26.03,0.58 52.07,-2.5 78.5,-0.38 26.23,2.31 53.07,10 79.3,10.96 26.43,0.96 52.46,-4.81 78.5,-2.5 26.03,2.12 52.07,12.5 78.1,7.7 26.03,-4.81 52.06,-24.82 78.1,-24.05 26.03,0.58 52.07,21.74 78.1,24.05 26.03,2.12 52.07,-14.43 78.1,-21.55 26.03,-7.12 52.07,-4.43 78.1,-4.43 26.03,0 52.07,-2.69 78.5,-4.81 26.23,-2.31 53.07,-4.23 79.3,-1.92 26.43,2.12 52.47,8.66 78.5,9.81 26.03,1.35 52.07,-2.5 78.1,2.31 26.03,4.81 52.07,18.28 78.1,16.35 26.03,-1.92 52.07,-19.24 78.1,-21.16 26.03,-1.92 52.06,11.54 78.1,18.66 26.03,6.93 52.07,7.7 78.1,1.92 26.03,-5.77 52.06,-18.08 78.5,-24.05 26.23,-6.16 53.07,-6.16 79.3,2.12 26.43,8.46 52.47,25.01 78.5,29.63 26.03,4.42 52.07,-3.27 78.1,-11.35 26.03,-7.89 52.07,-16.35 65.08,-20.39l13.02 -4.23 0 148.13 -13.02 0c-13.02,0 -39.05,0 -65.08,0 -26.03,0 -52.07,0 -78.1,0 -26.03,0 -52.07,0 -78.5,0 -26.23,0 -53.07,0 -79.3,0 -26.43,0 -52.47,0 -78.5,0 -26.03,0 -52.07,0 -78.1,0 -26.03,0 -52.07,0 -78.1,0 -26.03,0 -52.07,0 -78.1,0 -26.03,0 -52.07,0 -78.1,0 -26.03,0 -52.07,0 -78.1,0 -26.03,0 -52.07,0 -78.5,0 -26.23,0 -53.07,0 -79.3,0 -26.43,0 -52.46,0 -78.5,0 -26.03,0 -52.07,0 -78.1,0 -26.03,0 -52.06,0 -78.1,0 -26.03,0 -52.07,0 -78.1,0 -26.03,0 -52.06,0 -78.1,0 -26.03,0 -52.07,0 -78.1,0 -26.03,0 -52.07,0 -78.5,0 -26.23,0 -53.07,0 -79.3,0 -26.43,0 -52.47,0 -78.5,0 -26.03,0 -52.07,0 -78.1,0 -26.03,0 -52.07,0 -65.08,0l-13.02 0 0 -109.66z"/>
   <path class="fil2" d="M-0 111.36l13.02 -3.46c13.02,-3.66 39.05,-10.58 65.08,-8.47 26.03,2.31 52.07,13.85 78.1,21.55 26.03,7.7 52.07,11.54 78.5,7.12 26.23,-4.62 53.07,-17.31 79.3,-25.39 26.43,-8.08 52.46,-11.16 78.5,-10 26.03,1.35 52.07,7.12 78.1,5.77 26.03,-1.15 52.06,-9.62 78.1,-6.93 26.03,2.5 52.07,15.97 78.1,19.24 26.03,3.08 52.07,-3.85 78.1,-2.89 26.03,0.96 52.07,9.81 78.1,14.62 26.03,4.81 52.07,5.58 78.5,7.5 26.23,1.92 53.07,5 79.3,-2.69 26.43,-7.7 52.47,-26.16 78.5,-32.32 26.03,-6.16 52.07,0.38 78.1,5.77 26.03,5.39 52.07,10 78.1,9.62 26.03,-0.38 52.07,-5.39 78.1,-2.5 26.03,2.89 52.06,13.66 78.1,13.66 26.03,0 52.07,-10.77 78.1,-12.5 26.03,-1.54 52.06,6.16 78.5,4.62 26.23,-1.73 53.07,-12.5 79.3,-16.74 26.43,-4.23 52.47,-1.54 78.5,-0.38 26.03,1.35 52.07,1.35 78.1,5.77 26.03,4.62 52.07,13.47 65.08,18.08l13.02 4.42 0 71.18 -13.02 0c-13.02,0 -39.05,0 -65.08,0 -26.03,0 -52.07,0 -78.1,0 -26.03,0 -52.07,0 -78.5,0 -26.23,0 -53.07,0 -79.3,0 -26.43,0 -52.47,0 -78.5,0 -26.03,0 -52.07,0 -78.1,0 -26.03,0 -52.07,0 -78.1,0 -26.03,0 -52.07,0 -78.1,0 -26.03,0 -52.07,0 -78.1,0 -26.03,0 -52.07,0 -78.1,0 -26.03,0 -52.07,0 -78.5,0 -26.23,0 -53.07,0 -79.3,0 -26.43,0 -52.46,0 -78.5,0 -26.03,0 -52.07,0 -78.1,0 -26.03,0 -52.06,0 -78.1,0 -26.03,0 -52.07,0 -78.1,0 -26.03,0 -52.06,0 -78.1,0 -26.03,0 -52.07,0 -78.1,0 -26.03,0 -52.07,0 -78.5,0 -26.23,0 -53.07,0 -79.3,0 -26.43,0 -52.47,0 -78.5,0 -26.03,0 -52.07,0 -78.1,0 -26.03,0 -52.07,0 -65.08,0l-13.02 0 0 -84.65z"/>
   <path class="fil3" d="M-0 157.54l13.02 -1.92c13.02,-1.92 39.05,-5.77 65.08,-6.35 26.03,-0.77 52.07,1.92 78.1,0.19 26.03,-1.54 52.07,-7.31 78.5,-6.93 26.23,0.19 53.07,6.73 79.3,13.08 26.43,6.35 52.46,12.89 78.5,16.35 26.03,3.46 52.07,4.23 78.1,-2.89 26.03,-7.12 52.06,-21.74 78.1,-22.51 26.03,-0.58 52.07,12.89 78.1,17.31 26.03,4.62 52.07,0 78.1,-4.04 26.03,-4.23 52.07,-8.08 78.1,-11.93 26.03,-3.85 52.07,-7.7 78.5,-3.27 26.23,4.62 53.07,17.31 79.3,17.31 26.43,0 52.47,-12.7 78.5,-18.85 26.03,-6.16 52.07,-5.39 78.1,-2.31 26.03,3.27 52.07,9.04 78.1,7.7 26.03,-1.15 52.07,-9.62 78.1,-9.23 26.03,0.38 52.06,9.23 78.1,11.93 26.03,2.5 52.07,-1.35 78.1,-2.69 26.03,-1.15 52.06,0 78.5,-1.15 26.23,-1.35 53.07,-5.19 79.3,-7.5 26.43,-2.12 52.47,-2.89 78.5,-2.5 26.03,0.38 52.07,1.54 78.1,2.89 26.03,1.35 52.07,2.5 65.08,3.27l13.02 0.58 0 51.94 -13.02 0c-13.02,0 -39.05,0 -65.08,0 -26.03,0 -52.07,0 -78.1,0 -26.03,0 -52.07,0 -78.5,0 -26.23,0 -53.07,0 -79.3,0 -26.43,0 -52.47,0 -78.5,0 -26.03,0 -52.07,0 -78.1,0 -26.03,0 -52.07,0 -78.1,0 -26.03,0 -52.07,0 -78.1,0 -26.03,0 -52.07,0 -78.1,0 -26.03,0 -52.07,0 -78.1,0 -26.03,0 -52.07,0 -78.5,0 -26.23,0 -53.07,0 -79.3,0 -26.43,0 -52.46,0 -78.5,0 -26.03,0 -52.07,0 -78.1,0 -26.03,0 -52.06,0 -78.1,0 -26.03,0 -52.07,0 -78.1,0 -26.03,0 -52.06,0 -78.1,0 -26.03,0 -52.07,0 -78.1,0 -26.03,0 -52.07,0 -78.5,0 -26.23,0 -53.07,0 -79.3,0 -26.43,0 -52.47,0 -78.5,0 -26.03,0 -52.07,0 -78.1,0 -26.03,0 -52.07,0 -65.08,0l-13.02 0 0 -38.48z"/>
  </g>
 </g>
</svg>
