<?xml version="1.0" encoding="UTF-8"?>
<!DOCTYPE svg PUBLIC "-//W3C//DTD SVG 1.1//EN" "http://www.w3.org/Graphics/SVG/1.1/DTD/svg11.dtd">
<!-- Creator: CorelDRAW 2021 (64-Bit) -->
<svg xmlns="http://www.w3.org/2000/svg" xml:space="preserve" width="162.543mm" height="18.3915mm" version="1.1" style="shape-rendering:geometricPrecision; text-rendering:geometricPrecision; image-rendering:optimizeQuality; fill-rule:evenodd; clip-rule:evenodd"
viewBox="0 0 1802.3 203.93"
 xmlns:xlink="http://www.w3.org/1999/xlink"
 xmlns:xodm="http://www.corel.com/coreldraw/odm/2003">
 <defs>
  <style type="text/css">
   <![CDATA[
    .fil3 {fill:#BF9F1B;fill-rule:nonzero}
    .fil2 {fill:#E9C326;fill-rule:nonzero}
    .fil1 {fill:#FFDB49;fill-rule:nonzero}
    .fil0 {fill:#FFE477;fill-rule:nonzero}
   ]]>
  </style>
 </defs>
 <g id="Layer_x0020_1">
  <metadata id="CorelCorpID_0Corel-Layer"/>
  <g id="_2309919899376">
   <path class="fil0" d="M1802.3 5.77l-13.02 3.85c-13.02,3.85 -39.05,11.54 -65.08,19.62 -26.03,7.89 -52.07,16.35 -78.1,16.35 -26.03,0 -52.07,-8.46 -78.5,-16.74 -26.23,-8.27 -53.07,-16.74 -79.3,-12.12 -26.43,4.43 -52.47,21.74 -78.5,24.05 -26.03,2.12 -52.07,-10.58 -78.1,-20.2 -26.03,-9.62 -52.07,-16.16 -78.1,-16.35 -26.03,-0.38 -52.07,5.39 -78.1,7.7 -26.03,2.12 -52.07,0.96 -78.1,6.93 -26.03,6.16 -52.07,19.62 -78.1,25.78 -26.03,5.96 -52.07,4.81 -78.5,-0.77 -26.23,-5.39 -53.07,-15.01 -79.3,-23.28 -26.43,-8.46 -52.47,-15.39 -78.5,-17.7 -26.03,-2.31 -52.07,0.38 -78.1,0.38 -26.03,0 -52.07,-2.69 -78.1,5.39 -26.03,8.08 -52.07,26.55 -78.1,30.4 -26.03,3.85 -52.07,-6.93 -78.1,-13.66 -26.03,-6.73 -52.07,-9.43 -78.1,-5.19 -26.03,4.23 -52.07,15.01 -78.5,11.93 -26.23,-3.27 -53.07,-20.59 -79.3,-27.7 -26.43,-6.93 -52.47,-3.85 -78.5,-3.08 -26.03,0.58 -52.07,-1.35 -78.1,8.27 -26.03,9.62 -52.07,30.78 -65.08,41.36l-13.02 10.58 0 142.36 13.02 0c13.02,0 39.05,0 65.08,0 26.03,0 52.07,0 78.1,0 26.03,0 52.07,0 78.5,0 26.23,0 53.07,0 79.3,0 26.43,0 52.47,0 78.5,0 26.03,0 52.07,0 78.1,0 26.03,0 52.07,0 78.1,0 26.03,0 52.07,0 78.1,0 26.03,0 52.07,0 78.1,0 26.03,0 52.07,0 78.1,0 26.03,0 52.07,0 78.5,0 26.23,0 53.07,0 79.3,0 26.43,0 52.47,0 78.5,0 26.03,0 52.07,0 78.1,0 26.03,0 52.07,0 78.1,0 26.03,0 52.07,0 78.1,0 26.03,0 52.07,0 78.1,0 26.03,0 52.07,0 78.1,0 26.03,0 52.07,0 78.5,0 26.23,0 53.07,0 79.3,0 26.43,0 52.47,0 78.5,0 26.03,0 52.07,0 78.1,0 26.03,0 52.07,0 65.08,0l13.02 0 0 -198.16z"/>
   <path class="fil1" d="M1802.3 103.89l-13.02 -6.35c-13.02,-6.54 -39.05,-19.24 -65.08,-22.51 -26.03,-3.27 -52.07,3.27 -78.1,1.35 -26.03,-1.92 -52.07,-12.31 -78.5,-16.35 -26.23,-4.23 -53.07,-2.31 -79.3,0.58 -26.43,2.89 -52.47,6.73 -78.5,9.04 -26.03,2.12 -52.07,2.89 -78.1,-0.96 -26.03,-3.85 -52.07,-12.31 -78.1,-15.39 -26.03,-3.27 -52.07,-1.35 -78.1,2.5 -26.03,3.85 -52.07,9.62 -78.1,8.08 -26.03,-1.73 -52.07,-10.58 -78.1,-14.43 -26.03,-3.85 -52.07,-2.69 -78.5,0.19 -26.23,2.89 -53.07,7.5 -79.3,7.5 -26.43,0 -52.47,-4.62 -78.5,-1.92 -26.03,2.5 -52.07,12.12 -78.1,15.39 -26.03,3.08 -52.07,0 -78.1,-2.69 -26.03,-2.5 -52.07,-4.42 -78.1,1.35 -26.03,5.77 -52.07,19.24 -78.1,22.51 -26.03,3.08 -52.07,-3.85 -78.1,-12.51 -26.03,-8.66 -52.07,-19.05 -78.5,-16.74 -26.23,2.31 -53.07,16.93 -79.3,23.66 -26.43,6.73 -52.47,5.58 -78.5,-1.54 -26.03,-7.12 -52.07,-19.82 -78.1,-18.85 -26.03,0.96 -52.07,15.58 -65.08,23.09l-13.02 7.31 0 107.74 13.02 0c13.02,0 39.05,0 65.08,0 26.03,0 52.07,0 78.1,0 26.03,0 52.07,0 78.5,0 26.23,0 53.07,0 79.3,0 26.43,0 52.47,0 78.5,0 26.03,0 52.07,0 78.1,0 26.03,0 52.07,0 78.1,0 26.03,0 52.07,0 78.1,0 26.03,0 52.07,0 78.1,0 26.03,0 52.07,0 78.1,0 26.03,0 52.07,0 78.5,0 26.23,0 53.07,0 79.3,0 26.43,0 52.47,0 78.5,0 26.03,0 52.07,0 78.1,0 26.03,0 52.07,0 78.1,0 26.03,0 52.07,0 78.1,0 26.03,0 52.07,0 78.1,0 26.03,0 52.07,0 78.1,0 26.03,0 52.07,0 78.5,0 26.23,0 53.07,0 79.3,0 26.43,0 52.47,0 78.5,0 26.03,0 52.07,0 78.1,0 26.03,0 52.07,0 65.08,0l13.02 0 0 -100.04z"/>
   <path class="fil2" d="M1802.3 140.44l-13.02 -2.5c-13.02,-2.69 -39.05,-7.7 -65.08,-16.35 -26.03,-8.66 -52.07,-20.97 -78.1,-20.01 -26.03,0.96 -52.07,15.2 -78.5,14.24 -26.23,-0.96 -53.07,-17.12 -79.3,-17.7 -26.43,-0.58 -52.47,14.04 -78.5,14.81 -26.03,0.58 -52.07,-12.89 -78.1,-14.24 -26.03,-1.15 -52.07,9.62 -78.1,17.7 -26.03,8.08 -52.07,13.08 -78.1,8.08 -26.03,-5.19 -52.07,-20.59 -78.1,-24.05 -26.03,-3.66 -52.07,4.81 -78.1,12.12 -26.03,7.31 -52.07,13.85 -78.5,16.74 -26.23,2.89 -53.07,2.12 -79.3,0.58 -26.43,-1.54 -52.47,-4.23 -78.5,-4.23 -26.03,0 -52.07,2.69 -78.1,3.85 -26.03,1.35 -52.07,1.35 -78.1,-0.58 -26.03,-1.92 -52.07,-5.77 -78.1,-6.16 -26.03,-0.19 -52.07,2.89 -78.1,-2.5 -26.03,-5.39 -52.07,-19.62 -78.1,-25.59 -26.03,-6.16 -52.07,-4.23 -78.5,2.89 -26.23,6.93 -53.07,19.24 -79.3,22.32 -26.43,3.27 -52.47,-2.5 -78.5,-1.16 -26.03,1.16 -52.07,9.62 -78.1,8.85 -26.03,-0.58 -52.07,-10.2 -65.08,-15.01l-13.02 -4.81 0 96.19 13.02 0c13.02,0 39.05,0 65.08,0 26.03,0 52.07,0 78.1,0 26.03,0 52.07,0 78.5,0 26.23,0 53.07,0 79.3,0 26.43,0 52.47,0 78.5,0 26.03,0 52.07,0 78.1,0 26.03,0 52.07,0 78.1,0 26.03,0 52.07,0 78.1,0 26.03,0 52.07,0 78.1,0 26.03,0 52.07,0 78.1,0 26.03,0 52.07,0 78.5,0 26.23,0 53.07,0 79.3,0 26.43,0 52.47,0 78.5,0 26.03,0 52.07,0 78.1,0 26.03,0 52.07,0 78.1,0 26.03,0 52.07,0 78.1,0 26.03,0 52.07,0 78.1,0 26.03,0 52.07,0 78.1,0 26.03,0 52.07,0 78.5,0 26.23,0 53.07,0 79.3,0 26.43,0 52.47,0 78.5,0 26.03,0 52.07,0 78.1,0 26.03,0 52.07,0 65.08,0l13.02 0 0 -63.49z"/>
   <path class="fil3" d="M1802.3 150.06l-13.02 4.23c-13.02,4.04 -39.05,12.5 -65.08,15.39 -26.03,2.89 -52.07,0.19 -78.1,-7.7 -26.03,-8.08 -52.07,-21.55 -78.5,-19.24 -26.23,2.12 -53.07,20.2 -79.3,21.74 -26.43,1.54 -52.47,-13.08 -78.5,-21.16 -26.03,-8.08 -52.07,-9.23 -78.1,-3.27 -26.03,6.16 -52.07,19.62 -78.1,20.2 -26.03,0.77 -52.07,-11.54 -78.1,-17.31 -26.03,-5.77 -52.07,-5 -78.1,-2.12 -26.03,2.89 -52.07,7.89 -78.1,14.04 -26.03,6.16 -52.07,13.08 -78.5,13.08 -26.23,0 -53.07,-6.93 -79.3,-14.04 -26.43,-7.12 -52.47,-14.04 -78.5,-13.08 -26.03,0.96 -52.07,9.81 -78.1,14.62 -26.03,4.81 -52.07,5.58 -78.1,5.77 -26.03,0.38 -52.07,0.38 -78.1,2.69 -26.03,2.12 -52.07,6.73 -78.1,5.77 -26.03,-0.96 -52.07,-7.5 -78.1,-12.89 -26.03,-5.39 -52.07,-10 -78.5,-10 -26.23,0 -53.07,4.62 -79.3,6.73 -26.43,2.31 -52.47,2.31 -78.5,-0.96 -26.03,-3.08 -52.07,-9.62 -78.1,-8.27 -26.03,1.35 -52.07,10.2 -65.08,14.81l-13.02 4.43 0 40.4 13.02 0c13.02,0 39.05,0 65.08,0 26.03,0 52.07,0 78.1,0 26.03,0 52.07,0 78.5,0 26.23,0 53.07,0 79.3,0 26.43,0 52.47,0 78.5,0 26.03,0 52.07,0 78.1,0 26.03,0 52.07,0 78.1,0 26.03,0 52.07,0 78.1,0 26.03,0 52.07,0 78.1,0 26.03,0 52.07,0 78.1,0 26.03,0 52.07,0 78.5,0 26.23,0 53.07,0 79.3,0 26.43,0 52.47,0 78.5,0 26.03,0 52.07,0 78.1,0 26.03,0 52.07,0 78.1,0 26.03,0 52.07,0 78.1,0 26.03,0 52.07,0 78.1,0 26.03,0 52.07,0 78.1,0 26.03,0 52.07,0 78.5,0 26.23,0 53.07,0 79.3,0 26.43,0 52.47,0 78.5,0 26.03,0 52.07,0 78.1,0 26.03,0 52.07,0 65.08,0l13.02 0 0 -53.87z"/>
  </g>
 </g>
</svg>
