<?xml version="1.0" encoding="UTF-8"?>
<!DOCTYPE svg PUBLIC "-//W3C//DTD SVG 1.1//EN" "http://www.w3.org/Graphics/SVG/1.1/DTD/svg11.dtd">
<!-- Creator: CorelDRAW 2021 (64-Bit) -->
<svg xmlns="http://www.w3.org/2000/svg" xml:space="preserve" width="162.56mm" height="241.549mm" version="1.1" style="shape-rendering:geometricPrecision; text-rendering:geometricPrecision; image-rendering:optimizeQuality; fill-rule:evenodd; clip-rule:evenodd"
viewBox="0 0 1034.83 1537.66"
 xmlns:xlink="http://www.w3.org/1999/xlink"
 xmlns:xodm="http://www.corel.com/coreldraw/odm/2003">
 <defs>
  <style type="text/css">
   <![CDATA[
    .fil0 {fill:#924DFF;fill-rule:nonzero}
   ]]>
  </style>
 </defs>
 <g id="Layer_x0020_1">
  <metadata id="CorelCorpID_0Corel-Layer"/>
  <circle class="fil0" cx="494.63" cy="71.59" r="71.59"/>
  <circle class="fil0" cx="31.46" cy="250.57" r="31.46"/>
  <circle class="fil0" cx="154.9" cy="57.87" r="39.05"/>
  <circle class="fil0" cx="967.58" cy="185.49" r="67.25"/>
  <circle class="fil0" cx="723.85" cy="128.26" r="41.22"/>
  <circle class="fil0" cx="467.52" cy="295.05" r="61.83"/>
  <circle class="fil0" cx="738.7" cy="311.32" r="59.66"/>
  <circle class="fil0" cx="235.43" cy="170.68" r="67.25"/>
  <circle class="fil0" cx="540.19" cy="675.03" r="71.59"/>
  <circle class="fil0" cx="1003.37" cy="496.05" r="31.46"/>
  <circle class="fil0" cx="879.93" cy="688.75" r="39.05"/>
  <circle class="fil0" cx="67.25" cy="561.13" r="67.25"/>
  <circle class="fil0" cx="310.98" cy="618.36" r="41.22"/>
  <circle class="fil0" cx="567.31" cy="451.58" r="61.83"/>
  <circle class="fil0" cx="296.13" cy="435.31" r="59.66"/>
  <circle class="fil0" cx="799.4" cy="575.95" r="67.25"/>
  <circle class="fil0" cx="540.19" cy="1466.07" r="71.59"/>
  <circle class="fil0" cx="1003.37" cy="1287.09" r="31.46"/>
  <circle class="fil0" cx="879.93" cy="1479.79" r="39.05"/>
  <circle class="fil0" cx="67.25" cy="1352.17" r="67.25"/>
  <circle class="fil0" cx="310.98" cy="1409.4" r="41.22"/>
  <circle class="fil0" cx="567.31" cy="1242.61" r="61.83"/>
  <circle class="fil0" cx="296.13" cy="1226.34" r="59.66"/>
  <circle class="fil0" cx="799.4" cy="1366.98" r="67.25"/>
  <circle class="fil0" cx="494.63" cy="862.63" r="71.59"/>
  <circle class="fil0" cx="31.46" cy="1041.61" r="31.46"/>
  <circle class="fil0" cx="154.9" cy="848.9" r="39.05"/>
  <circle class="fil0" cx="967.58" cy="976.52" r="67.25"/>
  <circle class="fil0" cx="723.85" cy="919.29" r="41.22"/>
  <circle class="fil0" cx="467.52" cy="1086.08" r="61.83"/>
  <circle class="fil0" cx="738.7" cy="1102.35" r="59.66"/>
  <circle class="fil0" cx="235.43" cy="961.71" r="67.25"/>
 </g>
</svg>
