<?xml version="1.0" encoding="UTF-8"?>
<!DOCTYPE svg PUBLIC "-//W3C//DTD SVG 1.1//EN" "http://www.w3.org/Graphics/SVG/1.1/DTD/svg11.dtd">
<!-- Creator: CorelDRAW 2021 (64-Bit) -->
<svg xmlns="http://www.w3.org/2000/svg" xml:space="preserve" width="162.56mm" height="91.4548mm" version="1.1" style="shape-rendering:geometricPrecision; text-rendering:geometricPrecision; image-rendering:optimizeQuality; fill-rule:evenodd; clip-rule:evenodd"
viewBox="0 0 1802.68 1014.17"
 xmlns:xlink="http://www.w3.org/1999/xlink"
 xmlns:xodm="http://www.corel.com/coreldraw/odm/2003">
 <defs>
  <style type="text/css">
   <![CDATA[
    .fil7 {fill:#6A31C2;fill-rule:nonzero}
    .fil6 {fill:#8443EA;fill-rule:nonzero}
    .fil5 {fill:#9F61FF;fill-rule:nonzero}
    .fil4 {fill:#B787FF;fill-rule:nonzero}
    .fil3 {fill:#BF9F1B;fill-rule:nonzero}
    .fil2 {fill:#E9C326;fill-rule:nonzero}
    .fil1 {fill:#FFDB49;fill-rule:nonzero}
    .fil0 {fill:#FFE477;fill-rule:nonzero}
   ]]>
  </style>
 </defs>
 <g id="Layer_x0020_1">
  <metadata id="CorelCorpID_0Corel-Layer"/>
  <g id="_2309225693056">
   <g>
    <path class="fil0" d="M1802.49 815.99l-13.02 3.85c-13.02,3.85 -39.05,11.54 -65.09,19.62 -26.04,7.89 -52.07,16.35 -78.11,16.35 -26.04,0 -52.07,-8.47 -78.51,-16.74 -26.24,-8.27 -53.07,-16.74 -79.31,-12.12 -26.44,4.43 -52.47,21.74 -78.51,24.05 -26.04,2.12 -52.07,-10.58 -78.11,-20.2 -26.04,-9.62 -52.07,-16.16 -78.11,-16.35 -26.04,-0.38 -52.07,5.39 -78.11,7.7 -26.04,2.12 -52.07,0.96 -78.11,6.93 -26.04,6.16 -52.07,19.62 -78.11,25.78 -26.04,5.96 -52.07,4.81 -78.51,-0.77 -26.24,-5.39 -53.07,-15.01 -79.31,-23.28 -26.44,-8.47 -52.47,-15.39 -78.51,-17.7 -26.04,-2.31 -52.07,0.38 -78.11,0.38 -26.04,0 -52.07,-2.69 -78.11,5.39 -26.04,8.08 -52.07,26.55 -78.11,30.4 -26.04,3.85 -52.07,-6.93 -78.11,-13.66 -26.04,-6.73 -52.07,-9.43 -78.11,-5.2 -26.04,4.23 -52.07,15.01 -78.51,11.93 -26.24,-3.27 -53.07,-20.59 -79.31,-27.71 -26.44,-6.93 -52.47,-3.85 -78.51,-3.08 -26.04,0.58 -52.07,-1.35 -78.11,8.27 -26.04,9.62 -52.07,30.78 -65.09,41.37l-13.02 10.58 0 142.38 13.02 0c13.02,0 39.05,0 65.09,0 26.04,0 52.07,0 78.11,0 26.04,0 52.07,0 78.51,0 26.24,0 53.07,0 79.31,0 26.44,0 52.47,0 78.51,0 26.04,0 52.07,0 78.11,0 26.04,0 52.07,0 78.11,0 26.04,0 52.07,0 78.11,0 26.04,0 52.07,0 78.11,0 26.04,0 52.07,0 78.11,0 26.04,0 52.07,0 78.51,0 26.24,0 53.07,0 79.31,0 26.44,0 52.47,0 78.51,0 26.04,0 52.07,0 78.11,0 26.04,0 52.07,0 78.11,0 26.04,0 52.07,0 78.11,0 26.04,0 52.07,0 78.11,0 26.04,0 52.07,0 78.11,0 26.04,0 52.07,0 78.51,0 26.24,0 53.07,0 79.31,0 26.44,0 52.47,0 78.51,0 26.04,0 52.07,0 78.11,0 26.04,0 52.07,0 65.09,0l13.02 0 0 -198.18z"/>
    <path class="fil1" d="M1802.49 914.12l-13.02 -6.35c-13.02,-6.54 -39.05,-19.24 -65.09,-22.51 -26.04,-3.27 -52.07,3.27 -78.11,1.35 -26.04,-1.92 -52.07,-12.31 -78.51,-16.35 -26.24,-4.23 -53.07,-2.31 -79.31,0.58 -26.44,2.89 -52.47,6.73 -78.51,9.04 -26.04,2.12 -52.07,2.89 -78.11,-0.96 -26.04,-3.85 -52.07,-12.31 -78.11,-15.39 -26.04,-3.27 -52.07,-1.35 -78.11,2.5 -26.04,3.85 -52.07,9.62 -78.11,8.08 -26.04,-1.73 -52.07,-10.58 -78.11,-14.43 -26.04,-3.85 -52.07,-2.69 -78.51,0.19 -26.24,2.89 -53.07,7.5 -79.31,7.5 -26.44,0 -52.47,-4.62 -78.51,-1.92 -26.04,2.5 -52.07,12.12 -78.11,15.39 -26.04,3.08 -52.07,0 -78.11,-2.69 -26.04,-2.5 -52.07,-4.42 -78.11,1.35 -26.04,5.77 -52.07,19.24 -78.11,22.51 -26.04,3.08 -52.07,-3.85 -78.11,-12.51 -26.04,-8.66 -52.07,-19.05 -78.51,-16.74 -26.24,2.31 -53.07,16.93 -79.31,23.67 -26.44,6.73 -52.47,5.58 -78.51,-1.54 -26.04,-7.12 -52.07,-19.82 -78.11,-18.86 -26.04,0.96 -52.07,15.58 -65.09,23.09l-13.02 7.31 0 107.75 13.02 0c13.02,0 39.05,0 65.09,0 26.04,0 52.07,0 78.11,0 26.04,0 52.07,0 78.51,0 26.24,0 53.07,0 79.31,0 26.44,0 52.47,0 78.51,0 26.04,0 52.07,0 78.11,0 26.04,0 52.07,0 78.11,0 26.04,0 52.07,0 78.11,0 26.04,0 52.07,0 78.11,0 26.04,0 52.07,0 78.11,0 26.04,0 52.07,0 78.51,0 26.24,0 53.07,0 79.31,0 26.44,0 52.47,0 78.51,0 26.04,0 52.07,0 78.11,0 26.04,0 52.07,0 78.11,0 26.04,0 52.07,0 78.11,0 26.04,0 52.07,0 78.11,0 26.04,0 52.07,0 78.11,0 26.04,0 52.07,0 78.51,0 26.24,0 53.07,0 79.31,0 26.44,0 52.47,0 78.51,0 26.04,0 52.07,0 78.11,0 26.04,0 52.07,0 65.09,0l13.02 0 0 -100.05z"/>
    <path class="fil2" d="M1802.49 950.68l-13.02 -2.5c-13.02,-2.69 -39.05,-7.7 -65.09,-16.35 -26.04,-8.66 -52.07,-20.97 -78.11,-20.01 -26.04,0.96 -52.07,15.2 -78.51,14.24 -26.24,-0.96 -53.07,-17.12 -79.31,-17.7 -26.44,-0.58 -52.47,14.05 -78.51,14.81 -26.04,0.58 -52.07,-12.89 -78.11,-14.24 -26.04,-1.15 -52.07,9.62 -78.11,17.7 -26.04,8.08 -52.07,13.08 -78.11,8.08 -26.04,-5.2 -52.07,-20.59 -78.11,-24.05 -26.04,-3.66 -52.07,4.81 -78.11,12.12 -26.04,7.31 -52.07,13.85 -78.51,16.74 -26.24,2.89 -53.07,2.12 -79.31,0.58 -26.44,-1.54 -52.47,-4.23 -78.51,-4.23 -26.04,0 -52.07,2.69 -78.11,3.85 -26.04,1.35 -52.07,1.35 -78.11,-0.58 -26.04,-1.92 -52.07,-5.77 -78.11,-6.16 -26.04,-0.19 -52.07,2.89 -78.11,-2.5 -26.04,-5.39 -52.07,-19.62 -78.11,-25.59 -26.04,-6.16 -52.07,-4.23 -78.51,2.89 -26.24,6.93 -53.07,19.24 -79.31,22.32 -26.44,3.27 -52.47,-2.5 -78.51,-1.16 -26.04,1.16 -52.07,9.62 -78.11,8.85 -26.04,-0.58 -52.07,-10.2 -65.09,-15.01l-13.02 -4.81 0 96.2 13.02 0c13.02,0 39.05,0 65.09,0 26.04,0 52.07,0 78.11,0 26.04,0 52.07,0 78.51,0 26.24,0 53.07,0 79.31,0 26.44,0 52.47,0 78.51,0 26.04,0 52.07,0 78.11,0 26.04,0 52.07,0 78.11,0 26.04,0 52.07,0 78.11,0 26.04,0 52.07,0 78.11,0 26.04,0 52.07,0 78.11,0 26.04,0 52.07,0 78.51,0 26.24,0 53.07,0 79.31,0 26.44,0 52.47,0 78.51,0 26.04,0 52.07,0 78.11,0 26.04,0 52.07,0 78.11,0 26.04,0 52.07,0 78.11,0 26.04,0 52.07,0 78.11,0 26.04,0 52.07,0 78.11,0 26.04,0 52.07,0 78.51,0 26.24,0 53.07,0 79.31,0 26.44,0 52.47,0 78.51,0 26.04,0 52.07,0 78.11,0 26.04,0 52.07,0 65.09,0l13.02 0 0 -63.49z"/>
    <path class="fil3" d="M1802.49 960.3l-13.02 4.23c-13.02,4.04 -39.05,12.51 -65.09,15.39 -26.04,2.89 -52.07,0.19 -78.11,-7.7 -26.04,-8.08 -52.07,-21.55 -78.51,-19.24 -26.24,2.12 -53.07,20.2 -79.31,21.74 -26.44,1.54 -52.47,-13.08 -78.51,-21.16 -26.04,-8.08 -52.07,-9.24 -78.11,-3.27 -26.04,6.16 -52.07,19.63 -78.11,20.2 -26.04,0.77 -52.07,-11.54 -78.11,-17.32 -26.04,-5.77 -52.07,-5 -78.11,-2.12 -26.04,2.89 -52.07,7.89 -78.11,14.04 -26.04,6.16 -52.07,13.08 -78.51,13.08 -26.24,0 -53.07,-6.93 -79.31,-14.05 -26.44,-7.12 -52.47,-14.05 -78.51,-13.08 -26.04,0.96 -52.07,9.81 -78.11,14.62 -26.04,4.81 -52.07,5.58 -78.11,5.77 -26.04,0.38 -52.07,0.38 -78.11,2.69 -26.04,2.12 -52.07,6.73 -78.11,5.77 -26.04,-0.96 -52.07,-7.5 -78.11,-12.89 -26.04,-5.39 -52.07,-10 -78.51,-10 -26.24,0 -53.07,4.62 -79.31,6.73 -26.44,2.31 -52.47,2.31 -78.51,-0.96 -26.04,-3.08 -52.07,-9.62 -78.11,-8.27 -26.04,1.35 -52.07,10.2 -65.09,14.81l-13.02 4.43 0 40.4 13.02 0c13.02,0 39.05,0 65.09,0 26.04,0 52.07,0 78.11,0 26.04,0 52.07,0 78.51,0 26.24,0 53.07,0 79.31,0 26.44,0 52.47,0 78.51,0 26.04,0 52.07,0 78.11,0 26.04,0 52.07,0 78.11,0 26.04,0 52.07,0 78.11,0 26.04,0 52.07,0 78.11,0 26.04,0 52.07,0 78.11,0 26.04,0 52.07,0 78.51,0 26.24,0 53.07,0 79.31,0 26.44,0 52.47,0 78.51,0 26.04,0 52.07,0 78.11,0 26.04,0 52.07,0 78.11,0 26.04,0 52.07,0 78.11,0 26.04,0 52.07,0 78.11,0 26.04,0 52.07,0 78.11,0 26.04,0 52.07,0 78.51,0 26.24,0 53.07,0 79.31,0 26.44,0 52.47,0 78.51,0 26.04,0 52.07,0 78.11,0 26.04,0 52.07,0 65.09,0l13.02 0 0 -53.87z"/>
   </g>
   <g>
    <path class="fil4" d="M0.18 186.63l13.02 -9.04c13.02,-8.85 39.05,-26.94 65.09,-35.6 26.04,-8.66 52.07,-7.89 78.11,0.96 26.04,9.04 52.07,26.36 78.51,37.9 26.24,11.55 53.07,17.32 79.31,13.85 26.44,-3.66 52.47,-16.35 78.51,-19.62 26.04,-3.27 52.07,3.27 78.11,2.89 26.04,-0.38 52.07,-7.31 78.11,-9.24 26.04,-1.92 52.07,1.15 78.11,4.81 26.04,3.46 52.07,7.31 78.11,8.85 26.04,1.73 52.07,0.96 78.11,-4.81 26.04,-5.77 52.07,-16.55 78.51,-14.43 26.24,2.31 53.07,17.7 79.31,18.66 26.44,0.96 52.47,-12.51 78.51,-12.51 26.04,0 52.07,13.47 78.11,20.78 26.04,7.5 52.07,8.66 78.11,-0.96 26.04,-9.62 52.07,-30.02 78.11,-33.29 26.04,-3.27 52.07,10.97 78.11,18.86 26.04,8.08 52.07,10 78.11,9.43 26.04,-0.77 52.07,-3.85 78.51,-2.69 26.24,1.35 53.07,7.12 79.31,3.66 26.44,-3.66 52.47,-16.35 78.51,-19.63 26.04,-3.27 52.07,3.27 78.11,5.39 26.04,2.31 52.07,0.38 65.09,-0.58l13.02 -0.96 0 -169.32 -13.02 0c-13.02,0 -39.05,0 -65.09,0 -26.04,0 -52.07,0 -78.11,0 -26.04,0 -52.07,0 -78.51,0 -26.24,0 -53.07,0 -79.31,0 -26.44,0 -52.47,0 -78.51,0 -26.04,0 -52.07,0 -78.11,0 -26.04,0 -52.07,0 -78.11,0 -26.04,0 -52.07,0 -78.11,0 -26.04,0 -52.07,0 -78.11,0 -26.04,0 -52.07,0 -78.11,0 -26.04,0 -52.07,0 -78.51,0 -26.24,0 -53.07,0 -79.31,0 -26.44,0 -52.47,0 -78.51,0 -26.04,0 -52.07,0 -78.11,0 -26.04,0 -52.07,0 -78.11,0 -26.04,0 -52.07,0 -78.11,0 -26.04,0 -52.07,0 -78.11,0 -26.04,0 -52.07,0 -78.11,0 -26.04,0 -52.07,0 -78.51,0 -26.24,0 -53.07,0 -79.31,0 -26.44,0 -52.47,0 -78.51,0 -26.04,0 -52.07,0 -78.11,0 -26.04,0 -52.07,0 -65.09,0l-13.02 0 0 186.63z"/>
    <path class="fil5" d="M0.18 109.67l13.02 5.2c13.02,5 39.05,15.39 65.09,18.28 26.04,2.89 52.07,-1.73 78.11,-2.31 26.04,-0.58 52.07,2.5 78.51,0.38 26.24,-2.31 53.07,-10 79.31,-10.97 26.44,-0.96 52.47,4.81 78.51,2.5 26.04,-2.12 52.07,-12.51 78.11,-7.7 26.04,4.81 52.07,24.82 78.11,24.05 26.04,-0.58 52.07,-21.74 78.11,-24.05 26.04,-2.12 52.07,14.43 78.11,21.55 26.04,7.12 52.07,4.43 78.11,4.43 26.04,0 52.07,2.69 78.51,4.81 26.24,2.31 53.07,4.23 79.31,1.92 26.44,-2.12 52.47,-8.66 78.51,-9.81 26.04,-1.35 52.07,2.5 78.11,-2.31 26.04,-4.81 52.07,-18.28 78.11,-16.35 26.04,1.92 52.07,19.24 78.11,21.17 26.04,1.92 52.07,-11.55 78.11,-18.66 26.04,-6.93 52.07,-7.7 78.11,-1.92 26.04,5.77 52.07,18.09 78.51,24.05 26.24,6.16 53.07,6.16 79.31,-2.12 26.44,-8.47 52.47,-25.01 78.51,-29.63 26.04,-4.42 52.07,3.27 78.11,11.35 26.04,7.89 52.07,16.35 65.09,20.39l13.02 4.23 0 -148.15 -13.02 0c-13.02,0 -39.05,0 -65.09,0 -26.04,0 -52.07,0 -78.11,0 -26.04,0 -52.07,0 -78.51,0 -26.24,0 -53.07,0 -79.31,0 -26.44,0 -52.47,0 -78.51,0 -26.04,0 -52.07,0 -78.11,0 -26.04,0 -52.07,0 -78.11,0 -26.04,0 -52.07,0 -78.11,0 -26.04,0 -52.07,0 -78.11,0 -26.04,0 -52.07,0 -78.11,0 -26.04,0 -52.07,0 -78.51,0 -26.24,0 -53.07,0 -79.31,0 -26.44,0 -52.47,0 -78.51,0 -26.04,0 -52.07,0 -78.11,0 -26.04,0 -52.07,0 -78.11,0 -26.04,0 -52.07,0 -78.11,0 -26.04,0 -52.07,0 -78.11,0 -26.04,0 -52.07,0 -78.11,0 -26.04,0 -52.07,0 -78.51,0 -26.24,0 -53.07,0 -79.31,0 -26.44,0 -52.47,0 -78.51,0 -26.04,0 -52.07,0 -78.11,0 -26.04,0 -52.07,0 -65.09,0l-13.02 0 0 109.67z"/>
    <path class="fil6" d="M0.18 84.66l13.02 3.46c13.02,3.66 39.05,10.58 65.09,8.47 26.04,-2.31 52.07,-13.85 78.11,-21.55 26.04,-7.7 52.07,-11.55 78.51,-7.12 26.24,4.62 53.07,17.32 79.31,25.4 26.44,8.08 52.47,11.16 78.51,10 26.04,-1.35 52.07,-7.12 78.11,-5.77 26.04,1.15 52.07,9.62 78.11,6.93 26.04,-2.5 52.07,-15.97 78.11,-19.24 26.04,-3.08 52.07,3.85 78.11,2.89 26.04,-0.96 52.07,-9.81 78.11,-14.62 26.04,-4.81 52.07,-5.58 78.51,-7.5 26.24,-1.92 53.07,-5 79.31,2.69 26.44,7.7 52.47,26.17 78.51,32.32 26.04,6.16 52.07,-0.38 78.11,-5.77 26.04,-5.39 52.07,-10.01 78.11,-9.62 26.04,0.38 52.07,5.39 78.11,2.5 26.04,-2.89 52.07,-13.66 78.11,-13.66 26.04,0 52.07,10.77 78.11,12.51 26.04,1.54 52.07,-6.16 78.51,-4.62 26.24,1.73 53.07,12.51 79.31,16.74 26.44,4.23 52.47,1.54 78.51,0.38 26.04,-1.35 52.07,-1.35 78.11,-5.77 26.04,-4.62 52.07,-13.47 65.09,-18.09l13.02 -4.42 0 -71.19 -13.02 0c-13.02,0 -39.05,0 -65.09,0 -26.04,0 -52.07,0 -78.11,0 -26.04,0 -52.07,0 -78.51,0 -26.24,0 -53.07,0 -79.31,0 -26.44,0 -52.47,0 -78.51,0 -26.04,0 -52.07,0 -78.11,0 -26.04,0 -52.07,0 -78.11,0 -26.04,0 -52.07,0 -78.11,0 -26.04,0 -52.07,0 -78.11,0 -26.04,0 -52.07,0 -78.11,0 -26.04,0 -52.07,0 -78.51,0 -26.24,0 -53.07,0 -79.31,0 -26.44,0 -52.47,0 -78.51,0 -26.04,0 -52.07,0 -78.11,0 -26.04,0 -52.07,0 -78.11,0 -26.04,0 -52.07,0 -78.11,0 -26.04,0 -52.07,0 -78.11,0 -26.04,0 -52.07,0 -78.11,0 -26.04,0 -52.07,0 -78.51,0 -26.24,0 -53.07,0 -79.31,0 -26.44,0 -52.47,0 -78.51,0 -26.04,0 -52.07,0 -78.11,0 -26.04,0 -52.07,0 -65.09,0l-13.02 0 0 84.66z"/>
    <path class="fil7" d="M0.18 38.48l13.02 1.92c13.02,1.92 39.05,5.77 65.09,6.35 26.04,0.77 52.07,-1.92 78.11,-0.19 26.04,1.54 52.07,7.31 78.51,6.93 26.24,-0.19 53.07,-6.73 79.31,-13.08 26.44,-6.35 52.47,-12.89 78.51,-16.35 26.04,-3.46 52.07,-4.23 78.11,2.89 26.04,7.12 52.07,21.74 78.11,22.51 26.04,0.58 52.07,-12.89 78.11,-17.32 26.04,-4.62 52.07,0 78.11,4.04 26.04,4.23 52.07,8.08 78.11,11.93 26.04,3.85 52.07,7.7 78.51,3.27 26.24,-4.62 53.07,-17.32 79.31,-17.32 26.44,0 52.47,12.7 78.51,18.86 26.04,6.16 52.07,5.39 78.11,2.31 26.04,-3.27 52.07,-9.04 78.11,-7.7 26.04,1.15 52.07,9.62 78.11,9.24 26.04,-0.38 52.07,-9.24 78.11,-11.93 26.04,-2.5 52.07,1.35 78.11,2.69 26.04,1.15 52.07,0 78.51,1.15 26.24,1.35 53.07,5.19 79.31,7.5 26.44,2.12 52.47,2.89 78.51,2.5 26.04,-0.38 52.07,-1.54 78.11,-2.89 26.04,-1.35 52.07,-2.5 65.09,-3.27l13.02 -0.58 0 -51.95 -13.02 0c-13.02,0 -39.05,0 -65.09,0 -26.04,0 -52.07,0 -78.11,0 -26.04,0 -52.07,0 -78.51,0 -26.24,0 -53.07,0 -79.31,0 -26.44,0 -52.47,0 -78.51,0 -26.04,0 -52.07,0 -78.11,0 -26.04,0 -52.07,0 -78.11,0 -26.04,0 -52.07,0 -78.11,0 -26.04,0 -52.07,0 -78.11,0 -26.04,0 -52.07,0 -78.11,0 -26.04,0 -52.07,0 -78.51,0 -26.24,0 -53.07,0 -79.31,0 -26.44,0 -52.47,0 -78.51,0 -26.04,0 -52.07,0 -78.11,0 -26.04,0 -52.07,0 -78.11,0 -26.04,0 -52.07,0 -78.11,0 -26.04,0 -52.07,0 -78.11,0 -26.04,0 -52.07,0 -78.11,0 -26.04,0 -52.07,0 -78.51,0 -26.24,0 -53.07,0 -79.31,0 -26.44,0 -52.47,0 -78.51,0 -26.04,0 -52.07,0 -78.11,0 -26.04,0 -52.07,0 -65.09,0l-13.02 0 0 38.48z"/>
   </g>
  </g>
 </g>
</svg>
