<?xml version="1.0" encoding="UTF-8"?>
<!DOCTYPE svg PUBLIC "-//W3C//DTD SVG 1.1//EN" "http://www.w3.org/Graphics/SVG/1.1/DTD/svg11.dtd">
<!-- Creator: CorelDRAW 2021 (64-Bit) -->
<svg xmlns="http://www.w3.org/2000/svg" xml:space="preserve" width="162.56mm" height="91.4548mm" version="1.1" style="shape-rendering:geometricPrecision; text-rendering:geometricPrecision; image-rendering:optimizeQuality; fill-rule:evenodd; clip-rule:evenodd"
viewBox="0 0 1677.92 943.98"
 xmlns:xlink="http://www.w3.org/1999/xlink"
 xmlns:xodm="http://www.corel.com/coreldraw/odm/2003">
 <defs>
  <style type="text/css">
   <![CDATA[
    .fil7 {fill:#6A31C2;fill-rule:nonzero}
    .fil6 {fill:#8443EA;fill-rule:nonzero}
    .fil5 {fill:#9F61FF;fill-rule:nonzero}
    .fil4 {fill:#B787FF;fill-rule:nonzero}
    .fil3 {fill:#BF9F1B;fill-rule:nonzero}
    .fil2 {fill:#E9C326;fill-rule:nonzero}
    .fil1 {fill:#FFDB49;fill-rule:nonzero}
    .fil0 {fill:#FFE477;fill-rule:nonzero}
   ]]>
  </style>
 </defs>
 <g id="Layer_x0020_1">
  <metadata id="CorelCorpID_0Corel-Layer"/>
  <g id="_2309919947040">
   <g>
    <path class="fil0" d="M0.18 184.46l12.12 -3.58c12.12,-3.58 36.35,-10.75 60.59,-18.27 24.23,-7.34 48.47,-15.22 72.7,-15.22 24.23,0 48.47,7.88 73.07,15.58 24.42,7.7 49.4,15.58 73.82,11.28 24.61,-4.12 48.84,-20.24 73.07,-22.39 24.23,-1.97 48.47,9.85 72.7,18.8 24.23,8.95 48.47,15.04 72.7,15.22 24.23,0.36 48.47,-5.02 72.7,-7.16 24.23,-1.97 48.47,-0.89 72.7,-6.45 24.23,-5.73 48.47,-18.27 72.7,-24 24.23,-5.55 48.47,-4.48 73.07,0.72 24.42,5.02 49.4,13.97 73.82,21.67 24.61,7.88 48.84,14.33 73.07,16.48 24.23,2.15 48.47,-0.36 72.7,-0.36 24.23,0 48.47,2.51 72.7,-5.01 24.23,-7.52 48.47,-24.71 72.7,-28.3 24.23,-3.58 48.47,6.45 72.7,12.72 24.23,6.27 48.47,8.78 72.7,4.84 24.23,-3.94 48.47,-13.97 73.07,-11.1 24.42,3.04 49.4,19.16 73.82,25.79 24.61,6.45 48.84,3.58 73.07,2.87 24.23,-0.54 48.47,1.25 72.7,-7.7 24.23,-8.95 48.47,-28.65 60.59,-38.5l12.12 -9.85 0 -132.53 -12.12 0c-12.12,0 -36.35,0 -60.59,0 -24.23,0 -48.47,0 -72.7,0 -24.23,0 -48.47,0 -73.07,0 -24.42,0 -49.4,0 -73.82,0 -24.61,0 -48.84,0 -73.07,0 -24.23,0 -48.47,0 -72.7,0 -24.23,0 -48.47,0 -72.7,0 -24.23,0 -48.47,0 -72.7,0 -24.23,0 -48.47,0 -72.7,0 -24.23,0 -48.47,0 -72.7,0 -24.23,0 -48.47,0 -73.07,0 -24.42,0 -49.4,0 -73.82,0 -24.61,0 -48.84,0 -73.07,0 -24.23,0 -48.47,0 -72.7,0 -24.23,0 -48.47,0 -72.7,0 -24.23,0 -48.47,0 -72.7,0 -24.23,0 -48.47,0 -72.7,0 -24.23,0 -48.47,0 -72.7,0 -24.23,0 -48.47,0 -73.07,0 -24.42,0 -49.4,0 -73.82,0 -24.61,0 -48.84,0 -73.07,0 -24.23,0 -48.47,0 -72.7,0 -24.23,0 -48.47,0 -60.59,0l-12.12 0 0 184.46z"/>
    <path class="fil1" d="M0.18 93.13l12.12 5.91c12.12,6.09 36.35,17.91 60.59,20.95 24.23,3.04 48.47,-3.04 72.7,-1.25 24.23,1.79 48.47,11.46 73.07,15.22 24.42,3.94 49.4,2.15 73.82,-0.54 24.61,-2.69 48.84,-6.27 73.07,-8.42 24.23,-1.97 48.47,-2.69 72.7,0.89 24.23,3.58 48.47,11.46 72.7,14.33 24.23,3.04 48.47,1.25 72.7,-2.33 24.23,-3.58 48.47,-8.95 72.7,-7.52 24.23,1.61 48.47,9.85 72.7,13.43 24.23,3.58 48.47,2.51 73.07,-0.18 24.42,-2.69 49.4,-6.98 73.82,-6.98 24.61,0 48.84,4.3 73.07,1.79 24.23,-2.33 48.47,-11.28 72.7,-14.33 24.23,-2.87 48.47,0 72.7,2.51 24.23,2.33 48.47,4.12 72.7,-1.25 24.23,-5.37 48.47,-17.91 72.7,-20.95 24.23,-2.87 48.47,3.58 72.7,11.64 24.23,8.06 48.47,17.73 73.07,15.58 24.42,-2.15 49.4,-15.76 73.82,-22.03 24.61,-6.27 48.84,-5.19 73.07,1.43 24.23,6.63 48.47,18.45 72.7,17.55 24.23,-0.89 48.47,-14.51 60.59,-21.49l12.12 -6.81 0 -100.29 -12.12 0c-12.12,0 -36.35,0 -60.59,0 -24.23,0 -48.47,0 -72.7,0 -24.23,0 -48.47,0 -73.07,0 -24.42,0 -49.4,0 -73.82,0 -24.61,0 -48.84,0 -73.07,0 -24.23,0 -48.47,0 -72.7,0 -24.23,0 -48.47,0 -72.7,0 -24.23,0 -48.47,0 -72.7,0 -24.23,0 -48.47,0 -72.7,0 -24.23,0 -48.47,0 -72.7,0 -24.23,0 -48.47,0 -73.07,0 -24.42,0 -49.4,0 -73.82,0 -24.61,0 -48.84,0 -73.07,0 -24.23,0 -48.47,0 -72.7,0 -24.23,0 -48.47,0 -72.7,0 -24.23,0 -48.47,0 -72.7,0 -24.23,0 -48.47,0 -72.7,0 -24.23,0 -48.47,0 -72.7,0 -24.23,0 -48.47,0 -73.07,0 -24.42,0 -49.4,0 -73.82,0 -24.61,0 -48.84,0 -73.07,0 -24.23,0 -48.47,0 -72.7,0 -24.23,0 -48.47,0 -60.59,0l-12.12 0 0 93.13z"/>
    <path class="fil2" d="M0.18 59.1l12.12 2.33c12.12,2.51 36.35,7.16 60.59,15.22 24.23,8.06 48.47,19.52 72.7,18.62 24.23,-0.89 48.47,-14.15 73.07,-13.25 24.42,0.89 49.4,15.94 73.82,16.48 24.61,0.54 48.84,-13.07 73.07,-13.79 24.23,-0.54 48.47,12 72.7,13.25 24.23,1.07 48.47,-8.95 72.7,-16.48 24.23,-7.52 48.47,-12.18 72.7,-7.52 24.23,4.84 48.47,19.16 72.7,22.39 24.23,3.4 48.47,-4.48 72.7,-11.28 24.23,-6.81 48.47,-12.89 73.07,-15.58 24.42,-2.69 49.4,-1.97 73.82,-0.54 24.61,1.43 48.84,3.94 73.07,3.94 24.23,0 48.47,-2.51 72.7,-3.58 24.23,-1.25 48.47,-1.25 72.7,0.54 24.23,1.79 48.47,5.37 72.7,5.73 24.23,0.18 48.47,-2.69 72.7,2.33 24.23,5.01 48.47,18.27 72.7,23.82 24.23,5.73 48.47,3.94 73.07,-2.69 24.42,-6.45 49.4,-17.91 73.82,-20.77 24.61,-3.04 48.84,2.33 73.07,1.08 24.23,-1.08 48.47,-8.96 72.7,-8.24 24.23,0.54 48.47,9.49 60.59,13.97l12.12 4.48 0 -89.54 -12.12 0c-12.12,0 -36.35,0 -60.59,0 -24.23,0 -48.47,0 -72.7,0 -24.23,0 -48.47,0 -73.07,0 -24.42,0 -49.4,0 -73.82,0 -24.61,0 -48.84,0 -73.07,0 -24.23,0 -48.47,0 -72.7,0 -24.23,0 -48.47,0 -72.7,0 -24.23,0 -48.47,0 -72.7,0 -24.23,0 -48.47,0 -72.7,0 -24.23,0 -48.47,0 -72.7,0 -24.23,0 -48.47,0 -73.07,0 -24.42,0 -49.4,0 -73.82,0 -24.61,0 -48.84,0 -73.07,0 -24.23,0 -48.47,0 -72.7,0 -24.23,0 -48.47,0 -72.7,0 -24.23,0 -48.47,0 -72.7,0 -24.23,0 -48.47,0 -72.7,0 -24.23,0 -48.47,0 -72.7,0 -24.23,0 -48.47,0 -73.07,0 -24.42,0 -49.4,0 -73.82,0 -24.61,0 -48.84,0 -73.07,0 -24.23,0 -48.47,0 -72.7,0 -24.23,0 -48.47,0 -60.59,0l-12.12 0 0 59.1z"/>
    <path class="fil3" d="M0.18 50.14l12.12 -3.94c12.12,-3.76 36.35,-11.64 60.59,-14.33 24.23,-2.69 48.47,-0.18 72.7,7.16 24.23,7.52 48.47,20.06 73.07,17.91 24.42,-1.97 49.4,-18.81 73.82,-20.24 24.61,-1.43 48.84,12.18 73.07,19.7 24.23,7.52 48.47,8.6 72.7,3.04 24.23,-5.73 48.47,-18.27 72.7,-18.8 24.23,-0.72 48.47,10.75 72.7,16.12 24.23,5.37 48.47,4.66 72.7,1.97 24.23,-2.69 48.47,-7.34 72.7,-13.07 24.23,-5.73 48.47,-12.18 73.07,-12.18 24.42,0 49.4,6.45 73.82,13.07 24.61,6.63 48.84,13.07 73.07,12.18 24.23,-0.89 48.47,-9.13 72.7,-13.61 24.23,-4.48 48.47,-5.19 72.7,-5.37 24.23,-0.36 48.47,-0.36 72.7,-2.51 24.23,-1.97 48.47,-6.27 72.7,-5.37 24.23,0.89 48.47,6.98 72.7,12 24.23,5.01 48.47,9.31 73.07,9.31 24.42,0 49.4,-4.3 73.82,-6.27 24.61,-2.15 48.84,-2.15 73.07,0.9 24.23,2.87 48.47,8.95 72.7,7.7 24.23,-1.25 48.47,-9.49 60.59,-13.79l12.12 -4.12 0 -37.61 -12.12 0c-12.12,0 -36.35,0 -60.59,0 -24.23,0 -48.47,0 -72.7,0 -24.23,0 -48.47,0 -73.07,0 -24.42,0 -49.4,0 -73.82,0 -24.61,0 -48.84,0 -73.07,0 -24.23,0 -48.47,0 -72.7,0 -24.23,0 -48.47,0 -72.7,0 -24.23,0 -48.47,0 -72.7,0 -24.23,0 -48.47,0 -72.7,0 -24.23,0 -48.47,0 -72.7,0 -24.23,0 -48.47,0 -73.07,0 -24.42,0 -49.4,0 -73.82,0 -24.61,0 -48.84,0 -73.07,0 -24.23,0 -48.47,0 -72.7,0 -24.23,0 -48.47,0 -72.7,0 -24.23,0 -48.47,0 -72.7,0 -24.23,0 -48.47,0 -72.7,0 -24.23,0 -48.47,0 -72.7,0 -24.23,0 -48.47,0 -73.07,0 -24.42,0 -49.4,0 -73.82,0 -24.61,0 -48.84,0 -73.07,0 -24.23,0 -48.47,0 -72.7,0 -24.23,0 -48.47,0 -60.59,0l-12.12 0 0 50.14z"/>
   </g>
   <g>
    <path class="fil4" d="M1677.75 770.27l-12.12 8.42c-12.12,8.24 -36.35,25.07 -60.59,33.13 -24.23,8.06 -48.47,7.34 -72.7,-0.9 -24.23,-8.42 -48.47,-24.54 -73.08,-35.28 -24.42,-10.75 -49.4,-16.12 -73.82,-12.9 -24.61,3.4 -48.84,15.22 -73.07,18.27 -24.23,3.04 -48.47,-3.04 -72.7,-2.69 -24.23,0.36 -48.47,6.81 -72.7,8.6 -24.23,1.79 -48.47,-1.07 -72.7,-4.48 -24.23,-3.22 -48.47,-6.81 -72.7,-8.24 -24.23,-1.61 -48.47,-0.89 -72.7,4.48 -24.23,5.37 -48.47,15.4 -73.07,13.43 -24.42,-2.15 -49.4,-16.48 -73.82,-17.37 -24.61,-0.9 -48.84,11.64 -73.08,11.64 -24.23,0 -48.47,-12.54 -72.7,-19.34 -24.23,-6.98 -48.47,-8.06 -72.7,0.9 -24.23,8.95 -48.47,27.94 -72.7,30.98 -24.23,3.04 -48.47,-10.21 -72.7,-17.55 -24.23,-7.52 -48.47,-9.31 -72.7,-8.77 -24.23,0.72 -48.47,3.58 -73.07,2.51 -24.42,-1.25 -49.4,-6.63 -73.82,-3.4 -24.61,3.4 -48.84,15.22 -73.08,18.27 -24.23,3.04 -48.47,-3.04 -72.7,-5.01 -24.23,-2.15 -48.47,-0.36 -60.59,0.54l-12.12 0.9 0 157.6 12.12 0c12.12,0 36.35,0 60.59,0 24.23,0 48.47,0 72.7,0 24.23,0 48.47,0 73.08,0 24.42,0 49.4,0 73.82,0 24.61,0 48.84,0 73.07,0 24.23,0 48.47,0 72.7,0 24.23,0 48.47,0 72.7,0 24.23,0 48.47,0 72.7,0 24.23,0 48.47,0 72.7,0 24.23,0 48.47,0 72.7,0 24.23,0 48.47,0 73.08,0 24.42,0 49.4,0 73.82,0 24.61,0 48.84,0 73.07,0 24.23,0 48.47,0 72.7,0 24.23,0 48.47,0 72.7,0 24.23,0 48.47,0 72.7,0 24.23,0 48.47,0 72.7,0 24.23,0 48.47,0 72.7,0 24.23,0 48.47,0 73.07,0 24.42,0 49.4,0 73.82,0 24.61,0 48.84,0 73.08,0 24.23,0 48.47,0 72.7,0 24.23,0 48.47,0 60.59,0l12.12 0 0 -173.72z"/>
    <path class="fil5" d="M1677.75 841.9l-12.12 -4.84c-12.12,-4.66 -36.35,-14.33 -60.59,-17.01 -24.23,-2.69 -48.47,1.61 -72.7,2.15 -24.23,0.54 -48.47,-2.33 -73.08,-0.36 -24.42,2.15 -49.4,9.31 -73.82,10.21 -24.61,0.9 -48.84,-4.48 -73.07,-2.33 -24.23,1.97 -48.47,11.64 -72.7,7.16 -24.23,-4.48 -48.47,-23.1 -72.7,-22.39 -24.23,0.54 -48.47,20.24 -72.7,22.39 -24.23,1.97 -48.47,-13.43 -72.7,-20.06 -24.23,-6.63 -48.47,-4.12 -72.7,-4.12 -24.23,0 -48.47,-2.51 -73.07,-4.48 -24.42,-2.15 -49.4,-3.94 -73.82,-1.79 -24.61,1.97 -48.84,8.06 -73.08,9.13 -24.23,1.25 -48.47,-2.33 -72.7,2.15 -24.23,4.48 -48.47,17.01 -72.7,15.22 -24.23,-1.79 -48.47,-17.91 -72.7,-19.7 -24.23,-1.79 -48.47,10.75 -72.7,17.37 -24.23,6.45 -48.47,7.16 -72.7,1.79 -24.23,-5.37 -48.47,-16.83 -73.07,-22.39 -24.42,-5.73 -49.4,-5.73 -73.82,1.97 -24.61,7.88 -48.84,23.28 -73.08,27.58 -24.23,4.12 -48.47,-3.04 -72.7,-10.57 -24.23,-7.34 -48.47,-15.22 -60.59,-18.98l-12.12 -3.94 0 137.9 12.12 0c12.12,0 36.35,0 60.59,0 24.23,0 48.47,0 72.7,0 24.23,0 48.47,0 73.08,0 24.42,0 49.4,0 73.82,0 24.61,0 48.84,0 73.07,0 24.23,0 48.47,0 72.7,0 24.23,0 48.47,0 72.7,0 24.23,0 48.47,0 72.7,0 24.23,0 48.47,0 72.7,0 24.23,0 48.47,0 72.7,0 24.23,0 48.47,0 73.08,0 24.42,0 49.4,0 73.82,0 24.61,0 48.84,0 73.07,0 24.23,0 48.47,0 72.7,0 24.23,0 48.47,0 72.7,0 24.23,0 48.47,0 72.7,0 24.23,0 48.47,0 72.7,0 24.23,0 48.47,0 72.7,0 24.23,0 48.47,0 73.07,0 24.42,0 49.4,0 73.82,0 24.61,0 48.84,0 73.08,0 24.23,0 48.47,0 72.7,0 24.23,0 48.47,0 60.59,0l12.12 0 0 -102.08z"/>
    <path class="fil6" d="M1677.75 865.19l-12.12 -3.22c-12.12,-3.4 -36.35,-9.85 -60.59,-7.88 -24.23,2.15 -48.47,12.9 -72.7,20.06 -24.23,7.16 -48.47,10.75 -73.08,6.63 -24.42,-4.3 -49.4,-16.12 -73.82,-23.64 -24.61,-7.52 -48.84,-10.39 -73.07,-9.31 -24.23,1.25 -48.47,6.63 -72.7,5.37 -24.23,-1.07 -48.47,-8.95 -72.7,-6.45 -24.23,2.33 -48.47,14.86 -72.7,17.91 -24.23,2.86 -48.47,-3.58 -72.7,-2.69 -24.23,0.89 -48.47,9.13 -72.7,13.61 -24.23,4.48 -48.47,5.19 -73.07,6.98 -24.42,1.79 -49.4,4.66 -73.82,-2.51 -24.61,-7.16 -48.84,-24.36 -73.08,-30.09 -24.23,-5.73 -48.47,0.36 -72.7,5.37 -24.23,5.01 -48.47,9.31 -72.7,8.95 -24.23,-0.36 -48.47,-5.01 -72.7,-2.33 -24.23,2.69 -48.47,12.71 -72.7,12.71 -24.23,0 -48.47,-10.03 -72.7,-11.64 -24.23,-1.43 -48.47,5.73 -73.07,4.3 -24.42,-1.61 -49.4,-11.64 -73.82,-15.58 -24.61,-3.94 -48.84,-1.43 -73.08,-0.36 -24.23,1.25 -48.47,1.25 -72.7,5.37 -24.23,4.3 -48.47,12.54 -60.59,16.83l-12.12 4.12 0 66.26 12.12 0c12.12,0 36.35,0 60.59,0 24.23,0 48.47,0 72.7,0 24.23,0 48.47,0 73.08,0 24.42,0 49.4,0 73.82,0 24.61,0 48.84,0 73.07,0 24.23,0 48.47,0 72.7,0 24.23,0 48.47,0 72.7,0 24.23,0 48.47,0 72.7,0 24.23,0 48.47,0 72.7,0 24.23,0 48.47,0 72.7,0 24.23,0 48.47,0 73.08,0 24.42,0 49.4,0 73.82,0 24.61,0 48.84,0 73.07,0 24.23,0 48.47,0 72.7,0 24.23,0 48.47,0 72.7,0 24.23,0 48.47,0 72.7,0 24.23,0 48.47,0 72.7,0 24.23,0 48.47,0 72.7,0 24.23,0 48.47,0 73.07,0 24.42,0 49.4,0 73.82,0 24.61,0 48.84,0 73.08,0 24.23,0 48.47,0 72.7,0 24.23,0 48.47,0 60.59,0l12.12 0 0 -78.8z"/>
    <path class="fil7" d="M1677.75 908.17l-12.12 -1.79c-12.12,-1.79 -36.35,-5.37 -60.59,-5.91 -24.23,-0.72 -48.47,1.79 -72.7,0.18 -24.23,-1.43 -48.47,-6.81 -73.08,-6.45 -24.42,0.18 -49.4,6.27 -73.82,12.18 -24.61,5.91 -48.84,12 -73.07,15.22 -24.23,3.22 -48.47,3.94 -72.7,-2.69 -24.23,-6.63 -48.47,-20.24 -72.7,-20.95 -24.23,-0.54 -48.47,12 -72.7,16.12 -24.23,4.3 -48.47,0 -72.7,-3.76 -24.23,-3.94 -48.47,-7.52 -72.7,-11.1 -24.23,-3.58 -48.47,-7.16 -73.07,-3.04 -24.42,4.3 -49.4,16.12 -73.82,16.12 -24.61,0 -48.84,-11.82 -73.08,-17.55 -24.23,-5.73 -48.47,-5.01 -72.7,-2.15 -24.23,3.04 -48.47,8.42 -72.7,7.16 -24.23,-1.07 -48.47,-8.95 -72.7,-8.6 -24.23,0.36 -48.47,8.6 -72.7,11.1 -24.23,2.33 -48.47,-1.25 -72.7,-2.51 -24.23,-1.07 -48.47,0 -73.07,-1.07 -24.42,-1.25 -49.4,-4.83 -73.82,-6.98 -24.61,-1.97 -48.84,-2.69 -73.08,-2.33 -24.23,0.36 -48.47,1.43 -72.7,2.69 -24.23,1.25 -48.47,2.33 -60.59,3.04l-12.12 0.54 0 48.35 12.12 0c12.12,0 36.35,0 60.59,0 24.23,0 48.47,0 72.7,0 24.23,0 48.47,0 73.08,0 24.42,0 49.4,0 73.82,0 24.61,0 48.84,0 73.07,0 24.23,0 48.47,0 72.7,0 24.23,0 48.47,0 72.7,0 24.23,0 48.47,0 72.7,0 24.23,0 48.47,0 72.7,0 24.23,0 48.47,0 72.7,0 24.23,0 48.47,0 73.08,0 24.42,0 49.4,0 73.82,0 24.61,0 48.84,0 73.07,0 24.23,0 48.47,0 72.7,0 24.23,0 48.47,0 72.7,0 24.23,0 48.47,0 72.7,0 24.23,0 48.47,0 72.7,0 24.23,0 48.47,0 72.7,0 24.23,0 48.47,0 73.07,0 24.42,0 49.4,0 73.82,0 24.61,0 48.84,0 73.08,0 24.23,0 48.47,0 72.7,0 24.23,0 48.47,0 60.59,0l12.12 0 0 -35.82z"/>
   </g>
  </g>
 </g>
</svg>
